<?xml version="1.0" encoding="UTF-8"?>
<!DOCTYPE svg PUBLIC "-//W3C//DTD SVG 1.1//EN" "http://www.w3.org/Graphics/SVG/1.1/DTD/svg11.dtd">
<svg version="1.1" xmlns="http://www.w3.org/2000/svg" xmlns:xlink="http://www.w3.org/1999/xlink" x="0" y="0" width="1667" height="1667" viewBox="0, 0, 1667, 1667">
  <g id="Background">
    <rect x="0" y="0" width="1667" height="1667" fill="#000000" fill-opacity="0"/>
    <g stroke-width="1px">
      <line x1="12" y1="0" x2="12" y2="1667" stroke="#AAAAAA" stroke-opacity="0.25"/>
      <line x1="24" y1="0" x2="24" y2="1667" stroke="#AAAAAA" stroke-opacity="0.25"/>
      <line x1="36" y1="0" x2="36" y2="1667" stroke="#AAAAAA" stroke-opacity="0.25"/>
      <line x1="48" y1="0" x2="48" y2="1667" stroke="#AAAAAA" stroke-opacity="0.25"/>
      <line x1="60" y1="0" x2="60" y2="1667" stroke="#AAAAAA" stroke-opacity="0.25"/>
      <line x1="72" y1="0" x2="72" y2="1667" stroke="#AAAAAA" stroke-opacity="0.5"/>
      <line x1="84" y1="0" x2="84" y2="1667" stroke="#AAAAAA" stroke-opacity="0.25"/>
      <line x1="96" y1="0" x2="96" y2="1667" stroke="#AAAAAA" stroke-opacity="0.25"/>
      <line x1="108" y1="0" x2="108" y2="1667" stroke="#AAAAAA" stroke-opacity="0.25"/>
      <line x1="120" y1="0" x2="120" y2="1667" stroke="#AAAAAA" stroke-opacity="0.25"/>
      <line x1="132" y1="0" x2="132" y2="1667" stroke="#AAAAAA" stroke-opacity="0.25"/>
      <line x1="144" y1="0" x2="144" y2="1667" stroke="#AAAAAA" stroke-opacity="0.5"/>
      <line x1="156" y1="0" x2="156" y2="1667" stroke="#AAAAAA" stroke-opacity="0.25"/>
      <line x1="168" y1="0" x2="168" y2="1667" stroke="#AAAAAA" stroke-opacity="0.25"/>
      <line x1="180" y1="0" x2="180" y2="1667" stroke="#AAAAAA" stroke-opacity="0.25"/>
      <line x1="192" y1="0" x2="192" y2="1667" stroke="#AAAAAA" stroke-opacity="0.25"/>
      <line x1="204" y1="0" x2="204" y2="1667" stroke="#AAAAAA" stroke-opacity="0.25"/>
      <line x1="216" y1="0" x2="216" y2="1667" stroke="#AAAAAA" stroke-opacity="0.5"/>
      <line x1="228" y1="0" x2="228" y2="1667" stroke="#AAAAAA" stroke-opacity="0.25"/>
      <line x1="240" y1="0" x2="240" y2="1667" stroke="#AAAAAA" stroke-opacity="0.25"/>
      <line x1="252" y1="0" x2="252" y2="1667" stroke="#AAAAAA" stroke-opacity="0.25"/>
      <line x1="264" y1="0" x2="264" y2="1667" stroke="#AAAAAA" stroke-opacity="0.25"/>
      <line x1="276" y1="0" x2="276" y2="1667" stroke="#AAAAAA" stroke-opacity="0.25"/>
      <line x1="288" y1="0" x2="288" y2="1667" stroke="#AAAAAA" stroke-opacity="0.5"/>
      <line x1="300" y1="0" x2="300" y2="1667" stroke="#AAAAAA" stroke-opacity="0.25"/>
      <line x1="312" y1="0" x2="312" y2="1667" stroke="#AAAAAA" stroke-opacity="0.25"/>
      <line x1="324" y1="0" x2="324" y2="1667" stroke="#AAAAAA" stroke-opacity="0.25"/>
      <line x1="336" y1="0" x2="336" y2="1667" stroke="#AAAAAA" stroke-opacity="0.25"/>
      <line x1="348" y1="0" x2="348" y2="1667" stroke="#AAAAAA" stroke-opacity="0.25"/>
      <line x1="360" y1="0" x2="360" y2="1667" stroke="#AAAAAA" stroke-opacity="0.5"/>
      <line x1="372" y1="0" x2="372" y2="1667" stroke="#AAAAAA" stroke-opacity="0.25"/>
      <line x1="384" y1="0" x2="384" y2="1667" stroke="#AAAAAA" stroke-opacity="0.25"/>
      <line x1="396" y1="0" x2="396" y2="1667" stroke="#AAAAAA" stroke-opacity="0.25"/>
      <line x1="408" y1="0" x2="408" y2="1667" stroke="#AAAAAA" stroke-opacity="0.25"/>
      <line x1="420" y1="0" x2="420" y2="1667" stroke="#AAAAAA" stroke-opacity="0.25"/>
      <line x1="432" y1="0" x2="432" y2="1667" stroke="#AAAAAA" stroke-opacity="0.5"/>
      <line x1="444" y1="0" x2="444" y2="1667" stroke="#AAAAAA" stroke-opacity="0.25"/>
      <line x1="456" y1="0" x2="456" y2="1667" stroke="#AAAAAA" stroke-opacity="0.25"/>
      <line x1="468" y1="0" x2="468" y2="1667" stroke="#AAAAAA" stroke-opacity="0.25"/>
      <line x1="480" y1="0" x2="480" y2="1667" stroke="#AAAAAA" stroke-opacity="0.25"/>
      <line x1="492" y1="0" x2="492" y2="1667" stroke="#AAAAAA" stroke-opacity="0.25"/>
      <line x1="504" y1="0" x2="504" y2="1667" stroke="#AAAAAA" stroke-opacity="0.5"/>
      <line x1="516" y1="0" x2="516" y2="1667" stroke="#AAAAAA" stroke-opacity="0.25"/>
      <line x1="528" y1="0" x2="528" y2="1667" stroke="#AAAAAA" stroke-opacity="0.25"/>
      <line x1="540" y1="0" x2="540" y2="1667" stroke="#AAAAAA" stroke-opacity="0.25"/>
      <line x1="552" y1="0" x2="552" y2="1667" stroke="#AAAAAA" stroke-opacity="0.25"/>
      <line x1="564" y1="0" x2="564" y2="1667" stroke="#AAAAAA" stroke-opacity="0.25"/>
      <line x1="576" y1="0" x2="576" y2="1667" stroke="#AAAAAA" stroke-opacity="0.5"/>
      <line x1="588" y1="0" x2="588" y2="1667" stroke="#AAAAAA" stroke-opacity="0.25"/>
      <line x1="600" y1="0" x2="600" y2="1667" stroke="#AAAAAA" stroke-opacity="0.25"/>
      <line x1="612" y1="0" x2="612" y2="1667" stroke="#AAAAAA" stroke-opacity="0.25"/>
      <line x1="624" y1="0" x2="624" y2="1667" stroke="#AAAAAA" stroke-opacity="0.25"/>
      <line x1="636" y1="0" x2="636" y2="1667" stroke="#AAAAAA" stroke-opacity="0.25"/>
      <line x1="648" y1="0" x2="648" y2="1667" stroke="#AAAAAA" stroke-opacity="0.5"/>
      <line x1="660" y1="0" x2="660" y2="1667" stroke="#AAAAAA" stroke-opacity="0.25"/>
      <line x1="672" y1="0" x2="672" y2="1667" stroke="#AAAAAA" stroke-opacity="0.25"/>
      <line x1="684" y1="0" x2="684" y2="1667" stroke="#AAAAAA" stroke-opacity="0.25"/>
      <line x1="696" y1="0" x2="696" y2="1667" stroke="#AAAAAA" stroke-opacity="0.25"/>
      <line x1="708" y1="0" x2="708" y2="1667" stroke="#AAAAAA" stroke-opacity="0.25"/>
      <line x1="720" y1="0" x2="720" y2="1667" stroke="#AAAAAA" stroke-opacity="0.5"/>
      <line x1="732" y1="0" x2="732" y2="1667" stroke="#AAAAAA" stroke-opacity="0.25"/>
      <line x1="744" y1="0" x2="744" y2="1667" stroke="#AAAAAA" stroke-opacity="0.25"/>
      <line x1="756" y1="0" x2="756" y2="1667" stroke="#AAAAAA" stroke-opacity="0.25"/>
      <line x1="768" y1="0" x2="768" y2="1667" stroke="#AAAAAA" stroke-opacity="0.25"/>
      <line x1="780" y1="0" x2="780" y2="1667" stroke="#AAAAAA" stroke-opacity="0.25"/>
      <line x1="792" y1="0" x2="792" y2="1667" stroke="#AAAAAA" stroke-opacity="0.5"/>
      <line x1="804" y1="0" x2="804" y2="1667" stroke="#AAAAAA" stroke-opacity="0.25"/>
      <line x1="816" y1="0" x2="816" y2="1667" stroke="#AAAAAA" stroke-opacity="0.25"/>
      <line x1="828" y1="0" x2="828" y2="1667" stroke="#AAAAAA" stroke-opacity="0.25"/>
      <line x1="840" y1="0" x2="840" y2="1667" stroke="#AAAAAA" stroke-opacity="0.25"/>
      <line x1="852" y1="0" x2="852" y2="1667" stroke="#AAAAAA" stroke-opacity="0.25"/>
      <line x1="864" y1="0" x2="864" y2="1667" stroke="#AAAAAA" stroke-opacity="0.5"/>
      <line x1="876" y1="0" x2="876" y2="1667" stroke="#AAAAAA" stroke-opacity="0.25"/>
      <line x1="888" y1="0" x2="888" y2="1667" stroke="#AAAAAA" stroke-opacity="0.25"/>
      <line x1="900" y1="0" x2="900" y2="1667" stroke="#AAAAAA" stroke-opacity="0.25"/>
      <line x1="912" y1="0" x2="912" y2="1667" stroke="#AAAAAA" stroke-opacity="0.25"/>
      <line x1="924" y1="0" x2="924" y2="1667" stroke="#AAAAAA" stroke-opacity="0.25"/>
      <line x1="936" y1="0" x2="936" y2="1667" stroke="#AAAAAA" stroke-opacity="0.5"/>
      <line x1="948" y1="0" x2="948" y2="1667" stroke="#AAAAAA" stroke-opacity="0.25"/>
      <line x1="960" y1="0" x2="960" y2="1667" stroke="#AAAAAA" stroke-opacity="0.25"/>
      <line x1="972" y1="0" x2="972" y2="1667" stroke="#AAAAAA" stroke-opacity="0.25"/>
      <line x1="984" y1="0" x2="984" y2="1667" stroke="#AAAAAA" stroke-opacity="0.25"/>
      <line x1="996" y1="0" x2="996" y2="1667" stroke="#AAAAAA" stroke-opacity="0.25"/>
      <line x1="1008" y1="0" x2="1008" y2="1667" stroke="#AAAAAA" stroke-opacity="0.5"/>
      <line x1="1020" y1="0" x2="1020" y2="1667" stroke="#AAAAAA" stroke-opacity="0.25"/>
      <line x1="1032" y1="0" x2="1032" y2="1667" stroke="#AAAAAA" stroke-opacity="0.25"/>
      <line x1="1044" y1="0" x2="1044" y2="1667" stroke="#AAAAAA" stroke-opacity="0.25"/>
      <line x1="1056" y1="0" x2="1056" y2="1667" stroke="#AAAAAA" stroke-opacity="0.25"/>
      <line x1="1068" y1="0" x2="1068" y2="1667" stroke="#AAAAAA" stroke-opacity="0.25"/>
      <line x1="1080" y1="0" x2="1080" y2="1667" stroke="#AAAAAA" stroke-opacity="0.5"/>
      <line x1="1092" y1="0" x2="1092" y2="1667" stroke="#AAAAAA" stroke-opacity="0.25"/>
      <line x1="1104" y1="0" x2="1104" y2="1667" stroke="#AAAAAA" stroke-opacity="0.25"/>
      <line x1="1116" y1="0" x2="1116" y2="1667" stroke="#AAAAAA" stroke-opacity="0.25"/>
      <line x1="1128" y1="0" x2="1128" y2="1667" stroke="#AAAAAA" stroke-opacity="0.25"/>
      <line x1="1140" y1="0" x2="1140" y2="1667" stroke="#AAAAAA" stroke-opacity="0.25"/>
      <line x1="1152" y1="0" x2="1152" y2="1667" stroke="#AAAAAA" stroke-opacity="0.5"/>
      <line x1="1164" y1="0" x2="1164" y2="1667" stroke="#AAAAAA" stroke-opacity="0.25"/>
      <line x1="1176" y1="0" x2="1176" y2="1667" stroke="#AAAAAA" stroke-opacity="0.25"/>
      <line x1="1188" y1="0" x2="1188" y2="1667" stroke="#AAAAAA" stroke-opacity="0.25"/>
      <line x1="1200" y1="0" x2="1200" y2="1667" stroke="#AAAAAA" stroke-opacity="0.25"/>
      <line x1="1212" y1="0" x2="1212" y2="1667" stroke="#AAAAAA" stroke-opacity="0.25"/>
      <line x1="1224" y1="0" x2="1224" y2="1667" stroke="#AAAAAA" stroke-opacity="0.5"/>
      <line x1="1236" y1="0" x2="1236" y2="1667" stroke="#AAAAAA" stroke-opacity="0.25"/>
      <line x1="1248" y1="0" x2="1248" y2="1667" stroke="#AAAAAA" stroke-opacity="0.25"/>
      <line x1="1260" y1="0" x2="1260" y2="1667" stroke="#AAAAAA" stroke-opacity="0.25"/>
      <line x1="1272" y1="0" x2="1272" y2="1667" stroke="#AAAAAA" stroke-opacity="0.25"/>
      <line x1="1284" y1="0" x2="1284" y2="1667" stroke="#AAAAAA" stroke-opacity="0.25"/>
      <line x1="1296" y1="0" x2="1296" y2="1667" stroke="#AAAAAA" stroke-opacity="0.5"/>
      <line x1="1308" y1="0" x2="1308" y2="1667" stroke="#AAAAAA" stroke-opacity="0.25"/>
      <line x1="1320" y1="0" x2="1320" y2="1667" stroke="#AAAAAA" stroke-opacity="0.25"/>
      <line x1="1332" y1="0" x2="1332" y2="1667" stroke="#AAAAAA" stroke-opacity="0.25"/>
      <line x1="1344" y1="0" x2="1344" y2="1667" stroke="#AAAAAA" stroke-opacity="0.25"/>
      <line x1="1356" y1="0" x2="1356" y2="1667" stroke="#AAAAAA" stroke-opacity="0.25"/>
      <line x1="1368" y1="0" x2="1368" y2="1667" stroke="#AAAAAA" stroke-opacity="0.5"/>
      <line x1="1380" y1="0" x2="1380" y2="1667" stroke="#AAAAAA" stroke-opacity="0.25"/>
      <line x1="1392" y1="0" x2="1392" y2="1667" stroke="#AAAAAA" stroke-opacity="0.25"/>
      <line x1="1404" y1="0" x2="1404" y2="1667" stroke="#AAAAAA" stroke-opacity="0.25"/>
      <line x1="1416" y1="0" x2="1416" y2="1667" stroke="#AAAAAA" stroke-opacity="0.25"/>
      <line x1="1428" y1="0" x2="1428" y2="1667" stroke="#AAAAAA" stroke-opacity="0.25"/>
      <line x1="1440" y1="0" x2="1440" y2="1667" stroke="#AAAAAA" stroke-opacity="0.5"/>
      <line x1="1452" y1="0" x2="1452" y2="1667" stroke="#AAAAAA" stroke-opacity="0.25"/>
      <line x1="1464" y1="0" x2="1464" y2="1667" stroke="#AAAAAA" stroke-opacity="0.25"/>
      <line x1="1476" y1="0" x2="1476" y2="1667" stroke="#AAAAAA" stroke-opacity="0.25"/>
      <line x1="1488" y1="0" x2="1488" y2="1667" stroke="#AAAAAA" stroke-opacity="0.25"/>
      <line x1="1500" y1="0" x2="1500" y2="1667" stroke="#AAAAAA" stroke-opacity="0.25"/>
      <line x1="1512" y1="0" x2="1512" y2="1667" stroke="#AAAAAA" stroke-opacity="0.5"/>
      <line x1="1524" y1="0" x2="1524" y2="1667" stroke="#AAAAAA" stroke-opacity="0.25"/>
      <line x1="1536" y1="0" x2="1536" y2="1667" stroke="#AAAAAA" stroke-opacity="0.25"/>
      <line x1="1548" y1="0" x2="1548" y2="1667" stroke="#AAAAAA" stroke-opacity="0.25"/>
      <line x1="1560" y1="0" x2="1560" y2="1667" stroke="#AAAAAA" stroke-opacity="0.25"/>
      <line x1="1572" y1="0" x2="1572" y2="1667" stroke="#AAAAAA" stroke-opacity="0.25"/>
      <line x1="1584" y1="0" x2="1584" y2="1667" stroke="#AAAAAA" stroke-opacity="0.5"/>
      <line x1="1596" y1="0" x2="1596" y2="1667" stroke="#AAAAAA" stroke-opacity="0.25"/>
      <line x1="1608" y1="0" x2="1608" y2="1667" stroke="#AAAAAA" stroke-opacity="0.25"/>
      <line x1="1620" y1="0" x2="1620" y2="1667" stroke="#AAAAAA" stroke-opacity="0.25"/>
      <line x1="1632" y1="0" x2="1632" y2="1667" stroke="#AAAAAA" stroke-opacity="0.25"/>
      <line x1="1644" y1="0" x2="1644" y2="1667" stroke="#AAAAAA" stroke-opacity="0.25"/>
      <line x1="1656" y1="0" x2="1656" y2="1667" stroke="#AAAAAA" stroke-opacity="0.5"/>
      <line x1="0" y1="12" x2="1667" y2="12" stroke="#AAAAAA" stroke-opacity="0.25"/>
      <line x1="0" y1="24" x2="1667" y2="24" stroke="#AAAAAA" stroke-opacity="0.25"/>
      <line x1="0" y1="36" x2="1667" y2="36" stroke="#AAAAAA" stroke-opacity="0.25"/>
      <line x1="0" y1="48" x2="1667" y2="48" stroke="#AAAAAA" stroke-opacity="0.25"/>
      <line x1="0" y1="60" x2="1667" y2="60" stroke="#AAAAAA" stroke-opacity="0.25"/>
      <line x1="0" y1="72" x2="1667" y2="72" stroke="#AAAAAA" stroke-opacity="0.5"/>
      <line x1="0" y1="84" x2="1667" y2="84" stroke="#AAAAAA" stroke-opacity="0.25"/>
      <line x1="0" y1="96" x2="1667" y2="96" stroke="#AAAAAA" stroke-opacity="0.25"/>
      <line x1="0" y1="108" x2="1667" y2="108" stroke="#AAAAAA" stroke-opacity="0.25"/>
      <line x1="0" y1="120" x2="1667" y2="120" stroke="#AAAAAA" stroke-opacity="0.25"/>
      <line x1="0" y1="132" x2="1667" y2="132" stroke="#AAAAAA" stroke-opacity="0.25"/>
      <line x1="0" y1="144" x2="1667" y2="144" stroke="#AAAAAA" stroke-opacity="0.5"/>
      <line x1="0" y1="156" x2="1667" y2="156" stroke="#AAAAAA" stroke-opacity="0.25"/>
      <line x1="0" y1="168" x2="1667" y2="168" stroke="#AAAAAA" stroke-opacity="0.25"/>
      <line x1="0" y1="180" x2="1667" y2="180" stroke="#AAAAAA" stroke-opacity="0.25"/>
      <line x1="0" y1="192" x2="1667" y2="192" stroke="#AAAAAA" stroke-opacity="0.25"/>
      <line x1="0" y1="204" x2="1667" y2="204" stroke="#AAAAAA" stroke-opacity="0.25"/>
      <line x1="0" y1="216" x2="1667" y2="216" stroke="#AAAAAA" stroke-opacity="0.5"/>
      <line x1="0" y1="228" x2="1667" y2="228" stroke="#AAAAAA" stroke-opacity="0.25"/>
      <line x1="0" y1="240" x2="1667" y2="240" stroke="#AAAAAA" stroke-opacity="0.25"/>
      <line x1="0" y1="252" x2="1667" y2="252" stroke="#AAAAAA" stroke-opacity="0.25"/>
      <line x1="0" y1="264" x2="1667" y2="264" stroke="#AAAAAA" stroke-opacity="0.25"/>
      <line x1="0" y1="276" x2="1667" y2="276" stroke="#AAAAAA" stroke-opacity="0.25"/>
      <line x1="0" y1="288" x2="1667" y2="288" stroke="#AAAAAA" stroke-opacity="0.5"/>
      <line x1="0" y1="300" x2="1667" y2="300" stroke="#AAAAAA" stroke-opacity="0.25"/>
      <line x1="0" y1="312" x2="1667" y2="312" stroke="#AAAAAA" stroke-opacity="0.25"/>
      <line x1="0" y1="324" x2="1667" y2="324" stroke="#AAAAAA" stroke-opacity="0.25"/>
      <line x1="0" y1="336" x2="1667" y2="336" stroke="#AAAAAA" stroke-opacity="0.25"/>
      <line x1="0" y1="348" x2="1667" y2="348" stroke="#AAAAAA" stroke-opacity="0.25"/>
      <line x1="0" y1="360" x2="1667" y2="360" stroke="#AAAAAA" stroke-opacity="0.5"/>
      <line x1="0" y1="372" x2="1667" y2="372" stroke="#AAAAAA" stroke-opacity="0.25"/>
      <line x1="0" y1="384" x2="1667" y2="384" stroke="#AAAAAA" stroke-opacity="0.25"/>
      <line x1="0" y1="396" x2="1667" y2="396" stroke="#AAAAAA" stroke-opacity="0.25"/>
      <line x1="0" y1="408" x2="1667" y2="408" stroke="#AAAAAA" stroke-opacity="0.25"/>
      <line x1="0" y1="420" x2="1667" y2="420" stroke="#AAAAAA" stroke-opacity="0.25"/>
      <line x1="0" y1="432" x2="1667" y2="432" stroke="#AAAAAA" stroke-opacity="0.5"/>
      <line x1="0" y1="444" x2="1667" y2="444" stroke="#AAAAAA" stroke-opacity="0.25"/>
      <line x1="0" y1="456" x2="1667" y2="456" stroke="#AAAAAA" stroke-opacity="0.25"/>
      <line x1="0" y1="468" x2="1667" y2="468" stroke="#AAAAAA" stroke-opacity="0.25"/>
      <line x1="0" y1="480" x2="1667" y2="480" stroke="#AAAAAA" stroke-opacity="0.25"/>
      <line x1="0" y1="492" x2="1667" y2="492" stroke="#AAAAAA" stroke-opacity="0.25"/>
      <line x1="0" y1="504" x2="1667" y2="504" stroke="#AAAAAA" stroke-opacity="0.5"/>
      <line x1="0" y1="516" x2="1667" y2="516" stroke="#AAAAAA" stroke-opacity="0.25"/>
      <line x1="0" y1="528" x2="1667" y2="528" stroke="#AAAAAA" stroke-opacity="0.25"/>
      <line x1="0" y1="540" x2="1667" y2="540" stroke="#AAAAAA" stroke-opacity="0.25"/>
      <line x1="0" y1="552" x2="1667" y2="552" stroke="#AAAAAA" stroke-opacity="0.25"/>
      <line x1="0" y1="564" x2="1667" y2="564" stroke="#AAAAAA" stroke-opacity="0.25"/>
      <line x1="0" y1="576" x2="1667" y2="576" stroke="#AAAAAA" stroke-opacity="0.5"/>
      <line x1="0" y1="588" x2="1667" y2="588" stroke="#AAAAAA" stroke-opacity="0.25"/>
      <line x1="0" y1="600" x2="1667" y2="600" stroke="#AAAAAA" stroke-opacity="0.25"/>
      <line x1="0" y1="612" x2="1667" y2="612" stroke="#AAAAAA" stroke-opacity="0.25"/>
      <line x1="0" y1="624" x2="1667" y2="624" stroke="#AAAAAA" stroke-opacity="0.25"/>
      <line x1="0" y1="636" x2="1667" y2="636" stroke="#AAAAAA" stroke-opacity="0.25"/>
      <line x1="0" y1="648" x2="1667" y2="648" stroke="#AAAAAA" stroke-opacity="0.5"/>
      <line x1="0" y1="660" x2="1667" y2="660" stroke="#AAAAAA" stroke-opacity="0.25"/>
      <line x1="0" y1="672" x2="1667" y2="672" stroke="#AAAAAA" stroke-opacity="0.25"/>
      <line x1="0" y1="684" x2="1667" y2="684" stroke="#AAAAAA" stroke-opacity="0.25"/>
      <line x1="0" y1="696" x2="1667" y2="696" stroke="#AAAAAA" stroke-opacity="0.25"/>
      <line x1="0" y1="708" x2="1667" y2="708" stroke="#AAAAAA" stroke-opacity="0.25"/>
      <line x1="0" y1="720" x2="1667" y2="720" stroke="#AAAAAA" stroke-opacity="0.5"/>
      <line x1="0" y1="732" x2="1667" y2="732" stroke="#AAAAAA" stroke-opacity="0.25"/>
      <line x1="0" y1="744" x2="1667" y2="744" stroke="#AAAAAA" stroke-opacity="0.25"/>
      <line x1="0" y1="756" x2="1667" y2="756" stroke="#AAAAAA" stroke-opacity="0.25"/>
      <line x1="0" y1="768" x2="1667" y2="768" stroke="#AAAAAA" stroke-opacity="0.25"/>
      <line x1="0" y1="780" x2="1667" y2="780" stroke="#AAAAAA" stroke-opacity="0.25"/>
      <line x1="0" y1="792" x2="1667" y2="792" stroke="#AAAAAA" stroke-opacity="0.5"/>
      <line x1="0" y1="804" x2="1667" y2="804" stroke="#AAAAAA" stroke-opacity="0.25"/>
      <line x1="0" y1="816" x2="1667" y2="816" stroke="#AAAAAA" stroke-opacity="0.25"/>
      <line x1="0" y1="828" x2="1667" y2="828" stroke="#AAAAAA" stroke-opacity="0.25"/>
      <line x1="0" y1="840" x2="1667" y2="840" stroke="#AAAAAA" stroke-opacity="0.25"/>
      <line x1="0" y1="852" x2="1667" y2="852" stroke="#AAAAAA" stroke-opacity="0.25"/>
      <line x1="0" y1="864" x2="1667" y2="864" stroke="#AAAAAA" stroke-opacity="0.5"/>
      <line x1="0" y1="876" x2="1667" y2="876" stroke="#AAAAAA" stroke-opacity="0.25"/>
      <line x1="0" y1="888" x2="1667" y2="888" stroke="#AAAAAA" stroke-opacity="0.25"/>
      <line x1="0" y1="900" x2="1667" y2="900" stroke="#AAAAAA" stroke-opacity="0.25"/>
      <line x1="0" y1="912" x2="1667" y2="912" stroke="#AAAAAA" stroke-opacity="0.25"/>
      <line x1="0" y1="924" x2="1667" y2="924" stroke="#AAAAAA" stroke-opacity="0.25"/>
      <line x1="0" y1="936" x2="1667" y2="936" stroke="#AAAAAA" stroke-opacity="0.5"/>
      <line x1="0" y1="948" x2="1667" y2="948" stroke="#AAAAAA" stroke-opacity="0.25"/>
      <line x1="0" y1="960" x2="1667" y2="960" stroke="#AAAAAA" stroke-opacity="0.25"/>
      <line x1="0" y1="972" x2="1667" y2="972" stroke="#AAAAAA" stroke-opacity="0.25"/>
      <line x1="0" y1="984" x2="1667" y2="984" stroke="#AAAAAA" stroke-opacity="0.25"/>
      <line x1="0" y1="996" x2="1667" y2="996" stroke="#AAAAAA" stroke-opacity="0.25"/>
      <line x1="0" y1="1008" x2="1667" y2="1008" stroke="#AAAAAA" stroke-opacity="0.5"/>
      <line x1="0" y1="1020" x2="1667" y2="1020" stroke="#AAAAAA" stroke-opacity="0.25"/>
      <line x1="0" y1="1032" x2="1667" y2="1032" stroke="#AAAAAA" stroke-opacity="0.25"/>
      <line x1="0" y1="1044" x2="1667" y2="1044" stroke="#AAAAAA" stroke-opacity="0.25"/>
      <line x1="0" y1="1056" x2="1667" y2="1056" stroke="#AAAAAA" stroke-opacity="0.25"/>
      <line x1="0" y1="1068" x2="1667" y2="1068" stroke="#AAAAAA" stroke-opacity="0.25"/>
      <line x1="0" y1="1080" x2="1667" y2="1080" stroke="#AAAAAA" stroke-opacity="0.5"/>
      <line x1="0" y1="1092" x2="1667" y2="1092" stroke="#AAAAAA" stroke-opacity="0.25"/>
      <line x1="0" y1="1104" x2="1667" y2="1104" stroke="#AAAAAA" stroke-opacity="0.25"/>
      <line x1="0" y1="1116" x2="1667" y2="1116" stroke="#AAAAAA" stroke-opacity="0.25"/>
      <line x1="0" y1="1128" x2="1667" y2="1128" stroke="#AAAAAA" stroke-opacity="0.25"/>
      <line x1="0" y1="1140" x2="1667" y2="1140" stroke="#AAAAAA" stroke-opacity="0.25"/>
      <line x1="0" y1="1152" x2="1667" y2="1152" stroke="#AAAAAA" stroke-opacity="0.5"/>
      <line x1="0" y1="1164" x2="1667" y2="1164" stroke="#AAAAAA" stroke-opacity="0.25"/>
      <line x1="0" y1="1176" x2="1667" y2="1176" stroke="#AAAAAA" stroke-opacity="0.25"/>
      <line x1="0" y1="1188" x2="1667" y2="1188" stroke="#AAAAAA" stroke-opacity="0.25"/>
      <line x1="0" y1="1200" x2="1667" y2="1200" stroke="#AAAAAA" stroke-opacity="0.25"/>
      <line x1="0" y1="1212" x2="1667" y2="1212" stroke="#AAAAAA" stroke-opacity="0.25"/>
      <line x1="0" y1="1224" x2="1667" y2="1224" stroke="#AAAAAA" stroke-opacity="0.5"/>
      <line x1="0" y1="1236" x2="1667" y2="1236" stroke="#AAAAAA" stroke-opacity="0.25"/>
      <line x1="0" y1="1248" x2="1667" y2="1248" stroke="#AAAAAA" stroke-opacity="0.25"/>
      <line x1="0" y1="1260" x2="1667" y2="1260" stroke="#AAAAAA" stroke-opacity="0.25"/>
      <line x1="0" y1="1272" x2="1667" y2="1272" stroke="#AAAAAA" stroke-opacity="0.25"/>
      <line x1="0" y1="1284" x2="1667" y2="1284" stroke="#AAAAAA" stroke-opacity="0.25"/>
      <line x1="0" y1="1296" x2="1667" y2="1296" stroke="#AAAAAA" stroke-opacity="0.5"/>
      <line x1="0" y1="1308" x2="1667" y2="1308" stroke="#AAAAAA" stroke-opacity="0.25"/>
      <line x1="0" y1="1320" x2="1667" y2="1320" stroke="#AAAAAA" stroke-opacity="0.25"/>
      <line x1="0" y1="1332" x2="1667" y2="1332" stroke="#AAAAAA" stroke-opacity="0.25"/>
      <line x1="0" y1="1344" x2="1667" y2="1344" stroke="#AAAAAA" stroke-opacity="0.25"/>
      <line x1="0" y1="1356" x2="1667" y2="1356" stroke="#AAAAAA" stroke-opacity="0.25"/>
      <line x1="0" y1="1368" x2="1667" y2="1368" stroke="#AAAAAA" stroke-opacity="0.5"/>
      <line x1="0" y1="1380" x2="1667" y2="1380" stroke="#AAAAAA" stroke-opacity="0.25"/>
      <line x1="0" y1="1392" x2="1667" y2="1392" stroke="#AAAAAA" stroke-opacity="0.25"/>
      <line x1="0" y1="1404" x2="1667" y2="1404" stroke="#AAAAAA" stroke-opacity="0.25"/>
      <line x1="0" y1="1416" x2="1667" y2="1416" stroke="#AAAAAA" stroke-opacity="0.25"/>
      <line x1="0" y1="1428" x2="1667" y2="1428" stroke="#AAAAAA" stroke-opacity="0.25"/>
      <line x1="0" y1="1440" x2="1667" y2="1440" stroke="#AAAAAA" stroke-opacity="0.5"/>
      <line x1="0" y1="1452" x2="1667" y2="1452" stroke="#AAAAAA" stroke-opacity="0.25"/>
      <line x1="0" y1="1464" x2="1667" y2="1464" stroke="#AAAAAA" stroke-opacity="0.25"/>
      <line x1="0" y1="1476" x2="1667" y2="1476" stroke="#AAAAAA" stroke-opacity="0.25"/>
      <line x1="0" y1="1488" x2="1667" y2="1488" stroke="#AAAAAA" stroke-opacity="0.25"/>
      <line x1="0" y1="1500" x2="1667" y2="1500" stroke="#AAAAAA" stroke-opacity="0.25"/>
      <line x1="0" y1="1512" x2="1667" y2="1512" stroke="#AAAAAA" stroke-opacity="0.5"/>
      <line x1="0" y1="1524" x2="1667" y2="1524" stroke="#AAAAAA" stroke-opacity="0.25"/>
      <line x1="0" y1="1536" x2="1667" y2="1536" stroke="#AAAAAA" stroke-opacity="0.25"/>
      <line x1="0" y1="1548" x2="1667" y2="1548" stroke="#AAAAAA" stroke-opacity="0.25"/>
      <line x1="0" y1="1560" x2="1667" y2="1560" stroke="#AAAAAA" stroke-opacity="0.25"/>
      <line x1="0" y1="1572" x2="1667" y2="1572" stroke="#AAAAAA" stroke-opacity="0.25"/>
      <line x1="0" y1="1584" x2="1667" y2="1584" stroke="#AAAAAA" stroke-opacity="0.5"/>
      <line x1="0" y1="1596" x2="1667" y2="1596" stroke="#AAAAAA" stroke-opacity="0.25"/>
      <line x1="0" y1="1608" x2="1667" y2="1608" stroke="#AAAAAA" stroke-opacity="0.25"/>
      <line x1="0" y1="1620" x2="1667" y2="1620" stroke="#AAAAAA" stroke-opacity="0.25"/>
      <line x1="0" y1="1632" x2="1667" y2="1632" stroke="#AAAAAA" stroke-opacity="0.25"/>
      <line x1="0" y1="1644" x2="1667" y2="1644" stroke="#AAAAAA" stroke-opacity="0.25"/>
      <line x1="0" y1="1656" x2="1667" y2="1656" stroke="#AAAAAA" stroke-opacity="0.5"/>
    </g>
  </g>
  <g id="Calque_1">
    <g id="icon.png">
      <path d="M473,503 C437.654,503 409,474.346 409,439 C409,403.654 437.654,375 473,375 C508.346,375 537,403.654 537,439 C537,474.346 508.346,503 473,503 z" fill-opacity="0" stroke="#CECECE" stroke-width="3" id="Gray_Shape"/>
      <g id="White_Shape">
        <path d="M506.193,480.679 L513.762,488.247 C503.988,496.644 491.731,501.352 479,502.642 L479,491.934 C488.861,490.937 498.535,486.998 506.193,480.679 z" fill="#000000"/>
        <path d="M439.806,480.679 C447.489,486.987 457.122,490.933 467,491.934 L467,502.642 C454.185,501.627 442.11,496.394 432.238,488.247 L439.806,480.679 z" fill="#000000"/>
        <path d="M536.642,445 C535.627,457.815 530.394,469.89 522.247,479.762 L514.679,472.193 C520.987,464.511 524.933,454.878 525.934,445 L536.642,445 z" fill="#000000"/>
        <path d="M420.066,445 C421.063,454.861 425.002,464.535 431.321,472.193 L423.753,479.762 C415.356,469.988 410.648,457.73 409.358,445 L420.066,445 z" fill="#000000"/>
        <path d="M522.247,398.238 L524.285,400.708 C531.375,410.2 535.452,421.26 536.642,433 L525.934,433 C524.937,423.138 520.998,413.464 514.679,405.806 L522.247,398.238 z" fill="#000000"/>
        <path d="M423.752,398.238 L431.321,405.806 C425.012,413.488 421.067,423.122 420.066,433 L409.357,433 C410.373,420.185 415.606,408.11 423.753,398.238 L423.752,398.238 z" fill="#000000"/>
        <path d="M467,375.357 L467,386.066 C457.139,387.063 447.464,391.002 439.806,397.321 L432.238,389.752 C442.02,381.194 454.286,377.084 467,375.357 z" fill="#000000"/>
        <path d="M479,375.357 C491.815,376.373 503.89,381.606 513.762,389.753 L506.193,397.321 C498.511,391.012 488.878,387.067 479,386.066 L479,375.357 z" fill="#000000"/>
      </g>
      <path d="M499.116,435.491 C502.646,437.552 502.638,440.879 499.101,442.921 L460.642,465.124 C457.101,467.17 454.218,465.509 454.2,461.423 L454,416.56 C453.982,412.474 456.831,410.828 460.361,412.889 L499.116,435.491 z" fill="#000000" id="play"/>
    </g>
  </g>
</svg>
